<svg xmlns="http://www.w3.org/2000/svg" xmlns:xlink="http://www.w3.org/1999/xlink" viewBox="0 0 496.953 499.997"><defs><linearGradient id="a"><stop offset="0" stop-color="#ffb142"/><stop offset="1" stop-color="#c87600"/></linearGradient><linearGradient id="d" x1="609.68" x2="613.42" y1="134.2" y2="146.67" gradientUnits="userSpaceOnUse"><stop offset="0" stop-color="#a9a9a9"/><stop offset=".263" stop-color="#9c9c9c"/><stop offset=".489" stop-color="#97989c"/><stop offset=".778" stop-color="#9e9fa1"/><stop offset="1" stop-color="#acacac"/></linearGradient><linearGradient xlink:href="#a" id="b" x2="0" y1="133.85" y2="139.34" gradientUnits="userSpaceOnUse"/><linearGradient xlink:href="#a" id="c" x1="612.23" x2="615.54" gradientUnits="userSpaceOnUse"/></defs><path fill="url(#b)" stroke="#000" stroke-linecap="round" stroke-linejoin="round" stroke-width="1.949" d="M611.72 133.26a5.554 8.974 0 0 1-11.109 0 5.554 8.974 0 1 1 11.109 0zM598.27 133.26a5.554 8.974 0 0 1-11.109 0 5.554 8.974 0 1 1 11.109 0z" transform="translate(-1821.2 3.057) scale(3.3727)"/><path fill="url(#b)" stroke="#000" stroke-linecap="round" stroke-linejoin="round" stroke-width="1.949" d="M604.9 133.26a5.554 8.974 0 0 1-11.109 0 5.554 8.974 0 1 1 11.109 0zM641.73 133.26a5.554 8.974 0 0 1-11.109 0 5.554 8.974 0 1 1 11.109 0zM628.29 133.26a5.554 8.974 0 0 1-11.109 0 5.554 8.974 0 1 1 11.109 0z" transform="translate(-1821.2 3.057) scale(3.3727)"/><path fill="url(#b)" stroke="#000" stroke-linecap="round" stroke-linejoin="round" stroke-width="1.949" d="M634.91 133.26a5.554 8.974 0 0 1-11.109 0 5.554 8.974 0 1 1 11.109 0z" transform="translate(-1821.2 3.057) scale(3.3727)"/><path fill-opacity=".314" d="M177.86 422.216c-7.633 0-14.172 7.402-17.09 17.994 24.94 6.67 52.34 10.562 81.137 11.092-.393-16.15-8.602-29.086-18.693-29.086-4.34 0-8.325 2.402-11.503 6.409-3.177-4.007-7.163-6.409-11.502-6.409-4.189 0-8.054 2.241-11.175 5.998-3.12-3.757-6.986-5.998-11.174-5.998zm101.226 0c-10.066 0-18.261 12.871-18.693 28.963 28.765-.926 56.024-5.237 80.767-12.283-3.086-9.88-9.409-16.68-16.72-16.68-4.34 0-8.326 2.403-11.503 6.41-3.177-4.007-7.164-6.41-11.503-6.41-4.188 0-8.054 2.242-11.174 5.998-3.121-3.756-6.986-5.998-11.174-5.998z"/><path fill="#784421" stroke="#000" stroke-linecap="round" stroke-width="6.5733923" d="M466.3 221a217.657 217.657 0 0 1-435.314 0 217.657 217.657 0 1 1 435.314 0z"/><path fill="#fff" stroke="#000" stroke-linecap="round" stroke-linejoin="round" stroke-width="6.5733923" d="M356.215 329.824c-34.836-6.473-2.954 28.436-8.296 41.06-21.117-10.384-13.07 23.99-22.62 33.54-18.094-.968-20.918 17.278-33.54 22.62-15.253-8.462-26.499 8.296-41.06 8.296s-23.178-16.1-41.06-8.296c-12.622-5.342-15.446-22.93-33.54-22.62-9.55-9.55-8.076-45.896-22.62-33.54-5.342-12.623 19.31-50.163-8.296-41.06 0-14.561 29.246-41.582 8.296-41.06 5.341-12.622 32.132-22.019 22.62-33.54 19.098-19.098 45.477-30.916 74.6-30.916s55.502 11.818 74.601 30.916c-14.114 6.92 17.278 20.918 22.62 33.54-23.58-1.18 8.296 26.498 8.296 41.06z"/><path fill-opacity=".314" fill-rule="evenodd" d="M440.937 119.034a218.308 218.308 0 0 1 3.985 41.534c0 4.904-.173 9.762-.493 14.584-4.828-.24-9.963.024-15.447.822-46.293 9.858-26.52 67.92-38.576 128.668-39.89 45.13-98.213 73.58-163.138 73.58-39.93 0-77.343-10.79-109.525-29.58-31.129-72.884 10.617-152.055-44.246-165.724-60.618-10.945-84.095 45.295-44.905 129.572 21.64 46.53 57.478 69.387 83.85 78.26 37.288 29.974 84.65 47.903 136.185 47.903 60.405 0 115.104-24.635 154.55-64.415 22.946-11.46 48.46-32.333 66.183-67.252 33.145-65.299 26.799-114.476-7.189-128.092a216.172 216.172 0 0 0-21.24-59.855z"/><path fill="#784421" fill-rule="evenodd" stroke="#000" stroke-width="6.5733923" d="M73.347 172.332c63.248 22.743-18.62 123.762 49.717 211.907 12.631 16.293-76.075 2.748-107.434-87.535-30.497-87.798-1.489-141.373 57.717-124.372zM423.602 172.332c-63.249 22.743 18.62 123.762-49.717 211.907-12.632 16.293 76.074 2.748 107.434-87.535 30.497-87.798 1.488-141.373-57.717-124.372z"/><path fill="#784421" fill-rule="evenodd" stroke="#000" stroke-linecap="round" stroke-linejoin="round" stroke-width="6.5733923" d="M400.364 160.44c17.6-6.059 35.784 9.97 39.261 18.641-17.763-4.538-25.924-5.818-30.523-1.815 1.98 4.432 22.886 8.863 29.365 37.957-16.339-11.328-29.32-24.42-34.54-19.04 3.789 6.617 8.15 19.058 5.21 31.394-9.387-12.39-18.98-25.476-27.792-25.83"/><path fill="#fff" stroke="#000" stroke-linecap="round" stroke-width="6.5733923" d="M188.22 52.993c-41.062 0-74.41 38.56-74.41 86.071s33.35 86.071 74.41 86.071c24.132 0 45.546-13.331 59.138-33.956 13.593 20.64 35.052 33.956 59.194 33.956 41.063 0 74.412-38.56 74.412-86.071s-33.35-86.071-74.412-86.071c-24.138 0-45.599 13.32-59.194 33.956-13.594-20.62-35.009-33.956-59.137-33.956z"/><path fill-opacity=".314" fill-rule="evenodd" d="M249.638 198.795c-12.21 0-25.482 13.576-24.951 22.15s21.766 44.3 26.544 44.3 23.358-35.011 22.828-45.015-16.458-22.15-24.42-21.436z"/><path fill="url(#c)" fill-rule="evenodd" stroke="#000" stroke-width="1.949" d="M613.17 53.901c-3.62 0-7.555 3.627-7.398 5.918s6.454 11.837 7.87 11.837 6.926-9.354 6.769-12.028-4.88-5.918-7.241-5.727z" transform="translate(-1821.2 3.057) scale(3.3727)"/><path fill="#784421" fill-rule="evenodd" stroke="#000" stroke-linecap="round" stroke-linejoin="round" stroke-width="6.5733923" d="M96.214 160.44c-17.601-6.059-35.785 9.97-39.262 18.641 17.763-4.538 25.924-5.818 30.523-1.815-1.98 4.432-22.885 8.863-29.365 37.957 16.34-11.328 29.32-24.42 34.537-19.04-3.789 6.617-8.15 19.058-5.21 31.394 9.387-12.39 18.98-25.476 27.792-25.83"/><path fill="#fff" fill-rule="evenodd" stroke="#000" stroke-linejoin="round" stroke-width="6.5733923" d="M265.557 67.475c17.453-42.277 46.887-48 46.887-48s-16.371 22.053-1.543 15.918c22.96-9.499 95.963 20.27 95.963 20.27s-96.722-22.515-141.306 11.813zM225.557 63.532c-17.453-42.276-46.888-48-46.888-48s16.372 22.053 1.544 15.919c-22.96-9.5-95.964 20.269-95.964 20.269s96.723-22.514 141.306 11.813z"/><path stroke="#000" stroke-linecap="round" stroke-width="6.57305" d="M242.665 160.118a21.543 21.543 0 1 1-43.085 0 21.543 21.543 0 1 1 43.085 0z"/><path fill="#fff" d="M218.923 152.572a5.587 5.587 0 0 1-11.174 0 5.587 5.587 0 1 1 11.174 0z"/><path stroke="#000" stroke-linecap="round" stroke-width="6.57305" d="M287.427 142.068a21.543 21.543 0 1 1-23.513 36.105 21.543 21.543 0 1 1 23.513-36.105z"/><path fill="#fff" d="M273.48 152.572a5.587 5.587 0 0 1-11.175 0 5.587 5.587 0 1 1 11.174 0z"/><path fill-opacity=".314" fill-rule="evenodd" d="m444.31 169.192-1.643.041c21.312 17.175 30.332 56.918 19.431 112.193-14.49 73.481-70.432 105.181-89.025 106.854 6.037 8.58 80.152-10.682 108.25-91.572 26.685-76.823 7.783-127.45-37.016-127.518zM5.387 211.51c-4.538 21.699-1.707 50.84 10.23 85.204 31.36 90.284 120.06 103.839 107.427 87.545-5.402-6.967-9.887-14.033-13.557-21.116-24.914-5.97-71.053-32.045-91.9-92.064-7.729-22.252-11.64-42.304-12.201-59.569zm93.707 8.34c-1.16 11.22-2.44 23.152-2.999 35.659 1.306-12.871 2.734-24.9 2.999-35.66z"/><path fill="url(#d)" stroke="#000" stroke-width="1.949" d="M562.92 140v2.366c0 2.222 1.822 4.011 4.093 4.011h7.233v-1.13h78.735v1.13h6.837c2.27 0 4.099-1.79 4.099-4.011V140h-101z" transform="translate(-1821.2 3.057) scale(3.3727)"/><path fill="#999" stroke="#000" stroke-width="6.5733923" d="M76.483 256.545h344.825c8.436 0 15.227 5.975 15.227 13.396l-11.278 202.658c0 7.421-5.593 13.396-14.028 13.396H90.405c-8.436 0-18.107-5.975-18.107-13.396L61.26 269.941c0-7.421 6.791-13.396 15.226-13.396z"/><g fill="#fff"><path d="M256.922 345.574c-5.726.48-8.86 3.86-9.176 9.469-.108.813.178.572.664.532 6.398-1.226 9.355-4.704 9.264-9.545-.027-.563-.137-.492-.752-.455zM251.21 359.05c6.754-2.343 8.614 9.332 10.542 13.158.435.919.503 1.282-.031 1.824-8.777 9.07.424 13.331 5.384 14.027 1.235.192 1.332.732 1.044 1.523-.114.39-.384.718-.626 1.06-2.76 3.801-6.517 7.031-12.326 6.052-1.56-.466-2.96-1.062-4.609-1.359-1.697-.22-3.578-.081-5.032.355-1.026.337-1.953.763-3.014 1.046-2.915.679-5.594-.147-7.333-1.136-1.23-.761-1.851-1.522-2.515-2.453-2.995-3.45-4.035-8.019-2.44-11.586.453-.886.833-1.788 1.358-2.618 3.99-6.3 7.311-12.063 10.32-18.194.658-1.395 2.166-1.732 3.728-1.737 1.837-.057 2.913 1.508 5.55.038z"/></g></svg>