<svg xmlns="http://www.w3.org/2000/svg" fill="rgb(78, 77, 77)" viewBox="0 0 350 300"><path d="M195.32 289.09c-11.79-4.408-15.281-7.42-16.273-14.038-.566-3.773.26-5.646 5.413-12.28 4.635-5.967 4.52-7.681-.728-10.83-5.787-3.473-11.81-9.932-12.462-13.368-.298-1.57-.141-9.241.349-17.046s.7-14.497.469-14.871-1.113-.681-1.959-.681-2.59-.544-3.876-1.21c-2.01-1.039-2.573-1.059-4.017-.141-2.704 1.718-11.182 3.536-18.675 4.004-3.824.239-9.866.661-13.427.94l-6.474.504.46 4.922c.52 5.582 2.64 13.18 6.059 21.715 1.63 4.07 2.37 7.296 2.45 10.676.11 4.556-.045 5.013-2.587 7.658l-2.704 2.812-14.292-.291c-8.115-.166-15.126-.662-16.223-1.149-1.062-.471-4.365-1.624-7.34-2.561-9.025-2.845-18.94-9.354-28.215-18.523-7.86-7.77-10.075-13.996-7.323-20.583 2.62-6.274 13.208-18.422 17.927-20.572 1.887-.86 2.238-.655 6.025 3.511 4.771 5.25 6.284 5.58 7.028 1.528.802-4.36 5.368-13.63 8.021-16.283 4.413-4.413 9.715-5.786 22.85-5.92 6.397-.066 12.025-.362 12.506-.66.563-.347.86-3.352.834-8.441-.041-7.946.522-10.462 4.327-19.32l1.254-2.92-5.135-5.326c-6.408-6.645-6.885-6.511-12.678 3.545-6.567 11.399-12.406 16.734-21.429 19.579-2.945.928-3.435.894-4.8-.34-.835-.757-1.906-2.55-2.38-3.986s-1.269-2.65-1.767-2.7c-2.042-.2-4.029.311-6.632 1.706-1.784.957-4.296 1.474-7.16 1.474-3.474 0-4.828.368-6.381 1.738-1.772 1.562-2.068 2.66-2.916 10.824-1.254 12.072-2.538 11.543-2.538-1.045v-9.586h-1.906c-1.685 0-2.191.763-4.359 6.567-1.349 3.611-2.901 8.739-3.45 11.395-.672 3.252-1.364 4.828-2.12 4.828-1.646 0-.682-6.782 2.274-16.01l2.394-7.476-1.716-1.39c-3.267-2.645-5.442-1.643-8.723 4.017-6.32 10.903-15.708 13.695-24.22 7.203-3.427-2.614-4.267-4.257-4.267-8.345 0-5.77 4.717-12.815 11.477-17.14 2.256-1.443 4.102-3.065 4.102-3.604 0-1.372-1.613-2.835-3.127-2.835-3.338 0-6.233-4.73-6.856-11.202-.469-4.864-.761-5.119-4.502-3.926-1.417.451-1.738.262-1.738-1.029 0-1.03.653-1.746 1.874-2.052 3.188-.8 4.552-2.958 3.971-6.284-1.332-7.64-1.346-15.765-.036-21.66 1.611-7.247 5.955-19.932 8.64-25.231 1.702-3.36 1.895-4.485 1.464-8.539-.378-3.563-3.528-39.418-3.549-40.399-.023-1.11 2.365.746 6.827 5.306 7.583 7.75 8.095 7.009 5.795-8.395-.713-4.78-1.11-8.878-.88-9.108s5.415 4.58 11.524 10.684c22.457 22.444 41.898 31.696 77.401 36.836 2.895.42 5.636.992 6.09 1.273.803.496.747 1.943-.653 16.82l-.502 5.327 2.065-.395c1.135-.217 2.259-.08 2.496.304s-.145 4.135-.85 8.335c-1.618 9.637-1.127 11.02 3.683 10.367 3.908-.532 9.559.825 23.35 5.607 5.524 1.915 15.087 4.83 21.252 6.477 16.603 4.436 18.46 5.448 22.808 12.425 1.163 1.866 2.26 3.557 2.439 3.757.645.724 1.762-1.962 1.773-4.265.023-4.44 3.185-5.366 9.123-2.67 2.604 1.181 3.649 2.255 4.864 5.004.852 1.924 1.86 3.499 2.24 3.499s1.166-1.651 1.746-3.67l1.056-3.67 3.313.216c4.974.324 9.1 2.713 9.744 5.641 1.333 6.07-2.706 22.607-7.969 32.631-4.826 9.192-7.905 12.675-12.148 13.743-4.265 1.075-5.189 2.178-7.251 8.67-.923 2.902-2.847 6.978-4.277 9.057-2.337 3.397-2.654 4.513-3.144 11.037-.613 8.184.515 13.673 4.07 19.803 2.325 4.01 14.5 16.385 17.798 18.09 4.813 2.488 9.229 3.072 15.003 1.983 4.222-.797 6.562-.832 10.549-.16 4.722.796 5.394 1.164 8.599 4.699s3.878 3.902 8.561 4.685c9.351 1.563 20.37.633 36.246-3.058 15.332-3.565 23.367-3.091 28.279 1.669 4.148 4.02 5.176 6.995 4.78 13.829-.498 8.606-3.173 12.687-11.255 17.167-3.086 1.71-5.939 2.605-9.443 2.96-2.762.28-6.065.874-7.34 1.32-8.04 2.806-11.98 3.11-26.651 2.054-7.86-.565-16.878-1.044-20.04-1.065s-7.74-.448-10.177-.951c-4.572-.944-4.985-.886-14.59 2.058-1.911.586-4.866 1.293-6.566 1.571s-4.189.841-5.532 1.25c-4.95 1.51-16.304 3.15-23.438 3.387-6.109.202-8.116-.048-11.974-1.49zm-94.542-132.51c5.51-3.461 19.359-24.368 18.179-27.444-.93-2.423-3.256-1.002-9.836 6.009-13.39 14.267-16.77 19.023-15.769 22.18.684 2.153 3.216 1.899 7.426-.746zm-36.323-.966.905-1.691 1.37 1.691c2.394 2.957 9.25 2.14 19.887-2.37 1.575-.667 4.808-3.863 8.498-8.399 3.276-4.027 8.714-9.91 12.084-13.074s6.934-6.519 7.919-7.455 1.79-2.433 1.79-3.324.565-4.102 1.254-7.135c1.072-4.712 1.792-6.083 4.946-9.423 2.03-2.15 3.767-4.43 3.86-5.067.75-5.21-2.763-9.205-9.487-10.79-3.927-.925-5.104-.891-10.043.288-8.185 1.954-20.67 7.864-30.177 14.283-2.898 1.957-5.853 3.905-6.566 4.33-5.386 3.207-10.643 7.24-13.151 10.09-1.632 1.853-4.806 4.607-7.054 6.12s-5.497 4.741-7.222 7.176-3.63 4.725-4.234 5.092c-2.304 1.398-4.015 3.647-4.015 5.277 0 2.508 7.325 9.193 13.22 12.065 6.697 3.262 8.537 3.219 10.186-.24 1.682-3.527 3.09-3.556 2.432-.051-.274 1.46-.27 3.024.01 3.476.842 1.362 2.624.93 3.586-.869zm-15.331-36.503c2.02-3.423 4.71-8.71 5.977-11.749 3.477-8.34 7.917-23.568 7.108-24.378-.417-.416-4.41 3.243-9.888 9.059-5.054 5.366-12.23 12.383-15.949 15.593-4.605 3.976-6.76 6.367-6.76 7.503 0 .916 1.55 3.306 3.442 5.31 2.299 2.433 3.61 4.605 3.949 6.538.279 1.592 1.071 3.34 1.76 3.884 1.077.85 1.637.53 3.97-2.272 1.494-1.795 4.37-6.064 6.39-9.488z"/></svg>