<svg xmlns="http://www.w3.org/2000/svg" fill="rgb(255, 255, 255)" viewBox="0 0 74.089 99.818"><path d="M21.547.091S-.28.378.003 20.15s4.253 37.255 10.773 46.998 23.242 35.248 42.236 32.67c0 0 9.355-2.007 16.44-6.593l-22.96-18.054s-6.803 4.299-11.055-1.433-17.575-32.381-17.575-32.381-3.685-8.598 4.536-12.323L21.547.091z"/><path d="M24.099.091S25.8-.48 28.917 1.238s3.118 3.15 3.118 3.15l.284 19.775s-.851 1.147-1.984 2.291c-1.134 1.146-4.819 2.867-5.387 1.72-.565-1.145-.849-28.083-.849-28.083zM48.401 73.058l6.312-3.332s1.417-.285 3.684 1.146c2.268 1.436 14.174 10.893 14.174 10.893s1.984 1.719 1.417 3.725-1.984 6.305-1.984 6.305L48.401 73.058z"/></svg>